<?xml version="1.0" encoding="UTF-8"?>
<svg id="Layer_1" data-name="Layer 1" xmlns="http://www.w3.org/2000/svg" viewBox="0 0 47.77 72.34">
  <defs>
    <style>
      .cls-1 {
        fill: #eedc12;
      }

      .cls-1, .cls-2, .cls-3 {
        stroke-width: 0px;
      }

      .cls-2 {
        fill: #e6c61f;
      }

      .cls-3 {
        fill: #fcee1f;
      }
    </style>
  </defs>
  <path class="cls-2" d="M34.18,8.38c-.02,1.27-.07,2.56-.15,3.87-.28-.86-.66-1.67-1.13-2.43-2.04-3.24-5.81-5.42-10.12-5.42s-8.01,2.14-10.07,5.33c-.48.74-.86,1.54-1.14,2.38,0-.05,0-.1-.01-.14-.08-1.26-.13-2.52-.14-3.77,0,0,0,0,0,0,.14-.48.31-.96.51-1.41,1.76-3.98,5.96-6.78,10.85-6.78s9.17,2.86,10.9,6.9c.2.48.37.97.51,1.48Z"/>
  <path class="cls-1" d="M34.01,7.22c.22,1.89.4,3.83.52,5.81.71,11.06-.2,23.1-4.41,33.49-1.54,3.82-3.53,7.41-6.04,10.65-2.71,3.49-6.03,6.58-10.07,9.09-3.39,2.08-7.16,3.64-11.03,4.68L0,54.69c6.15-.14,11.32-2.58,15.54-6.32,2.46-2.18,4.61-4.8,6.45-7.67.64-.99,1.23-2.02,1.79-3.06,4.15-7.62,6.72-16.51,8.23-25.1.17-.97.32-1.95.47-2.92.22-1.5.4-3,.54-4.5.38.68.71,1.38,1,2.12Z"/>
  <path class="cls-3" d="M47.77,55.67l-2.86,16.67c-9.62-2.39-16.84-7.36-22.07-13.85-2.63-3.27-4.76-6.94-6.43-10.86-2.1-4.92-3.48-10.25-4.25-15.7-.91-6.23-1.12-12.47-.82-18.69,0-.07,0-.15,0-.22.1-1.94.25-3.88.46-5.81,0,0,0,0,0,0,.29-.72.62-1.42,1-2.08.17,1.55.38,3.1.63,4.66,1.55,9.94,4.53,19.96,9.44,28.71.61,1.06,1.26,2.11,1.93,3.11,1.96,2.93,4.19,5.59,6.76,7.8,3.5,3,7.62,5.14,12.54,5.94,1.21.19,2.44.28,3.66.33Z"/>
</svg>