<?xml version="1.0" encoding="utf-8"?>
<!-- Generator: Adobe Illustrator 28.1.0, SVG Export Plug-In . SVG Version: 6.00 Build 0)  -->
<svg version="1.1" xmlns="http://www.w3.org/2000/svg" xmlns:xlink="http://www.w3.org/1999/xlink" x="0px" y="0px"
	 viewBox="0 0 957.02 980.98" style="enable-background:new 0 0 957.02 980.98;" xml:space="preserve">
<style type="text/css">
	.st0{fill:#FFF200;}
	.st1{fill:#ED1C24;}
	.st2{fill:#BCBEC0;}
	.st3{fill:#939598;}
	.st4{fill:none;stroke:#000000;stroke-miterlimit:10;}
	.st5{fill:none;stroke:#BCBEC0;stroke-miterlimit:10;}
	.st6{fill:none;stroke:#000000;stroke-width:6;stroke-miterlimit:10;}
	.st7{fill:none;stroke:#000000;stroke-width:5;stroke-miterlimit:10;}
	.st8{fill:none;stroke:#A7A9AC;stroke-miterlimit:10;}
	.st9{fill:none;stroke:#939598;stroke-miterlimit:10;}
	.st10{fill:none;stroke:#808285;stroke-miterlimit:10;}
	.st11{fill:none;stroke:#D1D3D4;stroke-miterlimit:10;}
	.st12{fill:#E6C61F;}
	.st13{fill:#EEDC12;}
	.st14{fill:#FCEE1F;}
</style>
<g id="Layer_1">
</g>
<g id="Layer_2">
	<path d="M955.62,251.65c-0.27-0.35-0.58-0.66-0.91-0.94c-4.33-0.77-8.62-1.96-12.92-3.18c-0.49,0.19-0.95,0.28-1.38,0.18
		c-1.72-0.39-3.4-0.92-5.06-1.48c-0.12,0.05-0.23,0.08-0.29,0.07c-2.05-0.21-3.99-0.83-5.93-1.46c-0.23,0.11-0.45,0.2-0.55,0.19
		c-1.43-0.16-2.77-0.57-4.04-1.25c-2.58-0.24-5.14-0.55-7.67-1.25c-3.74-1.05-8.31-1.11-11.76-3.04c-0.25-0.03-0.5-0.07-0.75-0.09
		c0.18,0.02,0.37,0.01,0.55-0.02c-0.09-0.06-0.19-0.11-0.28-0.17c0,0-0.01,0-0.01,0c-0.29,0.15-0.67,0.34-0.83,0.33
		c-2.23-0.09-4.19-1.13-6.22-1.94c-0.45,0.19-0.84,0.3-1.1,0.25c-4.6-0.91-9.07-2.23-13.47-3.81c-0.89-0.06-1.77-0.12-2.58-0.55
		c0.04,0.02,0.19-0.05,0.38-0.14c-1.15-0.15-2.32-0.25-3.48-0.42c0.13,0.02,0.4-0.13,0.65-0.28c-3-0.68-5.99-1.39-8.96-2.3
		c-2.97-0.91-5.97-1.51-8.96-2.31c-0.52-0.14-1.02-0.31-1.52-0.49c-0.22,0.1-0.42,0.18-0.51,0.17c-1.22-0.15-2.33-0.65-3.4-1.22
		c-0.28,0.09-0.51,0.13-0.68,0.1c-6.56-1.48-13.08-3.18-19.34-5.66c-0.3,0.15-0.68,0.33-0.79,0.31c-0.73-0.12-1.45-0.36-2.03-0.8
		c-0.27,0.13-0.55,0.25-0.65,0.24c-0.98-0.16-1.85-0.58-2.67-1.13c0.04,0.02,0.31-0.11,0.59-0.26c-3.15-0.54-6.29-1.38-9.26-2.57
		c-3.14-1.26-5.92-1.66-9.17-2.45c-3.08-0.75-7.14-1.44-9.89-3.46c-0.33,0.15-0.69,0.31-0.71,0.29c-0.2-0.21-0.38-0.44-0.54-0.68
		c-0.26,0.04-0.51,0.04-0.73-0.03c-9.79-3.09-19.46-6.5-29.22-9.67c-3.4-1.11-8.84-2.01-12.48-4.32c-0.12,0.04-0.21,0.07-0.25,0.06
		c-0.73-0.16-1.42-0.43-2.11-0.7c0.04,0.02,0.16-0.03,0.29-0.1c-2.7-0.65-5.43-1.3-7.89-2.58c0.02,0.01,0.08-0.01,0.16-0.04
		c-0.58-0.17-1.16-0.35-1.72-0.52c-3.33-1-6.43-2.47-9.68-3.65c-2.02-0.73-4.34-0.71-5.85-2.26c-3.71-1.12-7.41-2.26-11.08-3.56
		c-0.55-0.11-1.12-0.29-1.59-0.57c-0.18-0.07-0.37-0.13-0.55-0.2c0.11,0.04,0.22,0.06,0.34,0.06c-0.25-0.19-0.46-0.42-0.61-0.7
		c-4.52-1.38-9.36-2.97-13.35-5.21c-2.72-0.79-5.44-1.69-8.17-2.72c-4.02-1.52-7.88-3.26-11.95-4.68c-1.82-0.64-4.45-1.29-5.97-2.76
		c-0.25-0.03-0.48-0.12-0.68-0.26c-0.37-0.1-0.68-0.34-0.9-0.67c-1.29-0.45-2.57-0.93-3.79-1.55c-1.73-0.69-3.43-1.42-5.07-2.25
		c0.03,0.07,0.05,0.12,0.06,0.12c-1.5-0.37-3.01-0.62-4.32-1.5c-0.08-0.06-0.16-0.19-0.23-0.36c-2.22-0.42-4.44-0.81-5.97-2.64
		c-0.19-0.22-0.34-0.48-0.48-0.73c-5.97-1.67-11.64-4.31-15.85-8.28c-0.08-0.08-0.16-0.17-0.23-0.26c-1.24,2.22-2.48,4.44-3.74,6.66
		c0.73-1.29-4.94,8.29-4.89,8.34c-8.12-9.35-18.28-16.4-28.64-23.19c-0.46,0.82-0.92,1.64-1.39,2.46c0.71-1.24-4.59,8.44-4.89,8.34
		c-0.83-0.27-1.67-0.53-2.5-0.8c-1.13,1.92-1.89,3.11-2.01,3.05c-2.51-1.25-4.96-2.17-7.8-2.25c-3.25,5.87-6.52,11.73-9.84,17.56
		c-0.05,0.09-3.65,7.78-4.89,8.34c-4.36,1.99-8.61,4.41-12.86,6.85c5.84,3.8,11.82,7.4,17.82,10.88c0.81,0.47-31.96,57.75-32,57.72
		c-3.03-1.76-6.05-3.55-9.05-5.38c-9.1,17.16-21.57,40.74-22.49,40.29c-18.06-8.84-35.36-19.18-51.67-30.96
		c-14.3-10.33-27.85-21.71-40.42-34.1c-11.13-10.98-21.1-23.02-32.15-34.09c-3.1-3.11-6.34-6.27-9.63-9.51
		c-4.72,8.1-13.97,23.96-13.68,24.2c-6-4.91-12.03-9.89-18.02-14.97c-3.98,7.02-7.86,13.85-7.88,13.84
		c-12.81-8.36-20.97-22.88-27.45-36.32c-2.24-4.65-4.31-9.4-6.23-14.2c-0.3,0.26-0.62,0.5-0.95,0.74c-1.37,1.39-3.69,2.25-5.22,2.85
		c-0.8,0.31-1.62,0.59-2.45,0.86c-1.09,0.89-2.33,1.46-3.63,1.9c0,0.02,0,0.05-0.01,0.06c-5.13,2.73-10.5,4.86-15.95,6.83
		c0.14,0.37,0.36,0.96,0.37,0.96c-1.02,0.03-1.98,0.44-3,0.47c-0.01,0-0.03-0.02-0.05-0.05c-0.81,0.34-1.62,0.68-2.43,1.02
		c0.12,0.22,0.23,0.35,0.32,0.34c-0.65,0.07-1.28,0.18-1.89,0.32c-3.46,1.47-6.91,2.96-10.4,4.39c-2.13,1.07-4.3,2.08-6.66,2.68
		c-0.03,0.01-0.06,0.02-0.09,0.02c-6.37,2.63-12.69,5.97-19.35,7.6c-0.04,0.01-0.09-0.05-0.15-0.14c-4.28,2.29-9.4,3.56-13.91,5.3
		c-5.1,1.96-10.31,3.45-15.36,5.59c0,0-0.1-0.22-0.25-0.58c-0.04,0.01-0.07,0.02-0.11,0.04c0.13,0.34,0.22,0.55,0.22,0.55
		c-0.32,0.12-0.64,0.22-0.96,0.33c-0.05,0.08-0.11,0.16-0.16,0.23c0.01-0.02-0.01-0.08-0.04-0.17c-2.73,0.93-5.49,1.63-8.27,2.42
		c-3.16,0.9-6.08,2.41-9.28,3.16c-1.57,1.28-3.65,1.44-5.51,2.19c-0.01,0-0.06-0.11-0.14-0.3c-0.06,0.02-0.11,0.04-0.17,0.06
		c0.07,0.15,0.13,0.24,0.17,0.24c-0.39-0.01-0.78,0.01-1.16,0.04c-0.23,0.06-0.47,0.11-0.7,0.16c-1.27,0.52-2.63,0.88-3.99,1.22
		c-1.05,0.45-2.05,0.89-3.16,1.17c0.08,0.2,0.14,0.36,0.14,0.36c-0.66,0.11-1.32,0.24-1.97,0.42c0,0,0,0,0,0.01c0,0,0,0,0-0.01
		c-0.06,0.02-0.12,0.03-0.17,0.05c0.01,0.03,0.03,0.07,0.04,0.1h-0.28c-0.01-0.01-0.01-0.02-0.01-0.03
		c-0.04,0.01-0.08,0.02-0.13,0.03c-0.01,0-0.06-0.07-0.12-0.2c-3.99,1.74-8.27,2.68-12.27,4.42c0,0-0.07-0.18-0.19-0.45
		c-1.39,0.85-2.87,1.5-4.6,1.58c-0.03,0-0.06-0.03-0.1-0.07c-2.33,1.08-4.69,2.05-7.08,2.32c-0.07,0.01-0.15-0.06-0.23-0.15
		c-1.85,1.02-3.77,1.89-5.83,2.12c-0.09,0.01-0.2-0.1-0.31-0.27c-0.99,0.43-2.01,0.77-3.1,0.92c-2.39,0.96-4.75,2.01-7.14,3.01
		c-0.01,0-0.13-0.28-0.32-0.73c-1.72,0.65-3.43,1.23-5.27,1.46c-0.01,0.04-0.02,0.09-0.05,0.11c-2.1,1.73-5.34,1.68-7.88,2.39
		c-4.26,1.2-8.52,2.48-12.79,3.69c-4.38,1.24-8.7,2.62-13.18,3.48c-3.03,0.58-6.03,1.05-9,1.76c-7.34,2.52-15.02,3.74-22.53,5.65
		c0,0,0.01,0.01,0.01,0.01c-4.53,1.24-9.11,2.33-13.72,3.33c-0.32,0.15-0.5,0.26-0.49,0.31c-0.01-0.07-0.02-0.13-0.03-0.2
		c-4.41,0.95-8.84,1.81-13.28,2.63c-4.05,1.77-9.14,2.48-13.44,3.3c-2.79,0.53-5.62,0.88-8.43,1.3c0.06,0.13,0.1,0.21,0.12,0.21
		c-1.85,0.24-3.63,0.81-5.44,1.26v489.5h957.02V251.22C956.26,251.59,955.72,251.78,955.62,251.65z"/>
	<g id="XMLID_00000070079617953258435030000016115844150384881331_">
		<g>
			<path d="M272.51,292.43c-14.83-10.98-29.65-21.96-44.48-32.93c-1.14-0.84-2.35-1.81-2.49-3.09c-0.11-1.08,0.58-2.1,1.24-3.02
				c23.82-33.08,47.64-66.17,71.46-99.25l-0.11-0.21c12.39-6.42,23.62-13.99,31.26-23.65c0.07-0.01,0.13,0,0.2-0.01
				c0.57-0.35,1.02-0.8,1.42-1.31c0.03-0.01,0.05-0.01,0.08-0.01c0.01-0.04,0-0.08,0.01-0.12c0,0,0-0.01,0.01-0.01
				c0.24,0,0.47,0,0.71,0c9.54,29.92,34.69,108.91,58.94,185.31c11.3,35.6,22.4,70.63,31.63,99.88c0,0-0.01,0,0,0.01
				c1.62,5.13,3.18,10.08,4.68,14.82c33.23,105.37,46.52,179.23,46.52,179.23s13.43-74.99,47.01-181.98c1.6-5.09,3.27-10.42,5-15.94
				c9.5-30.21,20.92-66.41,32.51-103.06c23.31-73.77,47.28-149.41,57.56-181.87c0.19,0.33,0.39,0.64,0.6,0.96v0.52
				c0,0.02,0.13,0.04,0.38,0.05c6.21,9.35,15.57,16.93,26.35,23.39c0.55,0.33,1.1,0.66,1.66,0.98h0.01
				c23.29,31.89,46.6,63.78,69.9,95.67c0.7,0.95,1.42,1.99,1.3,3.11c-0.15,1.32-1.41,2.32-2.59,3.18
				c-15.44,11.25-30.87,22.5-46.3,33.76l0.34,0.46c7.25,3.54,14.49,7.08,21.74,10.62c15.55,7.59,31.34,15.35,43.45,26.39l0.42,0.31
				c-15.87,21.8-31.75,43.59-47.62,65.38c-24.68,33.87-49.44,67.89-69.11,105.09c-11.11,21.02-20.52,42.93-30.93,64.33
				c-29.09,59.84-65.95,115.64-109.29,165.45c-45.28-49.16-83.79-104.23-114.18-163.28c-10.87-21.12-20.71-42.75-32.32-63.49
				c-20.55-36.72-46.43-70.3-72.21-103.73c-16.67-21.62-33.34-43.23-50.01-64.85c12.1-11.04,27.9-18.8,43.44-26.39
				c7.25-3.54,14.5-7.08,21.75-10.62L272.51,292.43z"/>
			<path class="st2" d="M616.5,122.61c-0.26,0.83-0.54,1.7-0.83,2.61c-0.49-0.77-0.95-1.56-1.38-2.37v-0.25
				C615.16,122.6,615.92,122.6,616.5,122.61z"/>
			<path class="st2" d="M482.17,236.68c27.77-42.14,81.16-66.59,119.23-102.41c3.92-3.7,7.71-7.58,11.14-11.68
				c0.62,0,1.21,0.01,1.75,0.01v0.25c0.43,0.81,0.89,1.6,1.38,2.37c-10.28,32.46-34.25,108.1-57.56,181.87l-21.01-19.07
				l-56.33-51.14C481.24,236.82,481.71,236.75,482.17,236.68z"/>
			<path class="st3" d="M537.1,288.02l21.01,19.07c-11.59,36.65-23.01,72.85-32.51,103.06l-2.1-0.66
				c-3.53-12.28-8.5-24.28-14.81-35.79c-2.97-5.4-6.24-10.73-8.28-16.42c-3.82-10.69-3.07-22.08-2.15-33.22
				c3.88-3.16,7.77-6.31,11.65-9.47C519.97,306.43,530.15,298.13,537.1,288.02z"/>
			<path class="st1" d="M498.26,324.06c-0.92,11.14-1.67,22.53,2.15,33.22c2.04,5.69,5.31,11.02,8.28,16.42
				c6.31,11.51,11.28,23.51,14.81,35.79l2.1,0.66c-1.73,5.52-3.4,10.85-5,15.94c-33.58,106.99-47.01,181.98-47.01,181.98
				s-13.29-73.86-46.52-179.23c-1.5-4.74-3.06-9.69-4.68-14.82c-0.01-0.01,0-0.01,0-0.01c2.33-13.89,6.81-27.53,13.3-40.5
				c8.63-17.24,20.97-33.84,22.52-52.44c-14.6-9.39-29.21-18.79-43.81-28.18l-1.31-1.3l53.33-53.83c4.8,0.06,9.61-0.24,14.35-0.88
				l56.33,51.14c-6.95,10.11-17.13,18.41-27.19,26.57C506.03,317.75,502.14,320.9,498.26,324.06z"/>
			<path class="st2" d="M466.42,237.76l-53.33,53.83l-22.33,22.54c-24.25-76.4-49.4-155.39-58.94-185.31
				c2.8-0.01,5.59-0.02,8.39-0.03c1.83,1.87,3.7,3.7,5.62,5.48c38.73,35.96,93.11,60.47,121.16,102.92L466.42,237.76z"/>
			<path class="st3" d="M414.4,292.89c14.6,9.39,29.21,18.79,43.81,28.18c-1.55,18.6-13.89,35.2-22.52,52.44
				c-6.49,12.97-10.97,26.61-13.3,40.5c-9.23-29.25-20.33-64.28-31.63-99.88l22.33-22.54L414.4,292.89z"/>
		</g>
		<g>
			<path class="st4" d="M612.54,122.59c-3.43,4.1-7.22,7.98-11.14,11.68c-38.07,35.82-91.46,60.27-119.23,102.41
				c-0.12,0.17-0.23,0.34-0.34,0.51"/>
			<path class="st5" d="M616.27,126.18c-0.21-0.32-0.41-0.63-0.6-0.96c-0.49-0.77-0.95-1.56-1.38-2.37"/>
			<path class="st5" d="M644.66,151.12c-0.56-0.32-1.11-0.65-1.66-0.98c-10.78-6.46-20.14-14.04-26.35-23.39"/>
			<path class="st5" d="M968,253.4c-100.67-19.6-198.42-48.77-290.54-86.72c-11.16-4.59-22.56-9.6-32.79-15.56"/>
			<path class="st6" d="M422.39,414.02c1.62,5.13,3.18,10.08,4.68,14.82c33.23,105.37,46.52,179.23,46.52,179.23"/>
			<path class="st6" d="M331.82,128.82c9.54,29.92,34.69,108.91,58.94,185.31c11.3,35.6,22.4,70.63,31.63,99.88"/>
			<path class="st7" d="M616.5,122.61c-0.26,0.83-0.54,1.7-0.83,2.61c-10.28,32.46-34.25,108.1-57.56,181.87
				c-11.59,36.65-23.01,72.85-32.51,103.06c-1.73,5.52-3.4,10.85-5,15.94c-33.58,106.99-47.01,181.98-47.01,181.98"/>
			<polyline class="st4" points="466.99,237.19 466.42,237.76 413.09,291.59 390.76,314.13 389.87,315.02 			"/>
			<polyline class="st4" points="480.2,236.36 480.77,236.88 537.1,288.02 558.11,307.09 559.71,308.55 			"/>
			<path class="st6" d="M422.39,414.01c0,0-0.01,0,0,0.01"/>
			<path class="st8" d="M298.24,154.14c-23.82,33.08-47.64,66.17-71.46,99.25c-0.66,0.92-1.35,1.94-1.24,3.02
				c0.14,1.28,1.35,2.25,2.49,3.09c14.83,10.97,29.65,21.95,44.48,32.93c0.13,0.1,0.27,0.2,0.4,0.3"/>
			<path class="st9" d="M272.45,292.51c-7.25,3.54-14.5,7.08-21.75,10.62c-15.54,7.59-31.34,15.35-43.44,26.39"/>
			<path class="st9" d="M207.26,329.52c16.67,21.62,33.34,43.23,50.01,64.85c25.78,33.43,51.66,67.01,72.21,103.73
				c11.61,20.74,21.45,42.37,32.32,63.49c30.39,59.05,68.9,114.12,114.18,163.28c0.84,0.92,1.68,1.83,2.53,2.74"/>
			<path class="st10" d="M643.97,150.17c0.23,0.32,0.46,0.63,0.69,0.95h0.01c23.29,31.89,46.6,63.78,69.9,95.67
				c0.7,0.95,1.42,1.99,1.3,3.11c-0.15,1.32-1.41,2.32-2.59,3.18c-15.44,11.25-30.87,22.5-46.3,33.76
				c-0.21,0.15-0.42,0.31-0.63,0.46"/>
			<path class="st10" d="M643.85,150.01c0.02,0.02,0.03,0.05,0.05,0.07"/>
			<path class="st10" d="M667.32,287.3c7.25,3.54,14.49,7.08,21.74,10.62c15.55,7.59,31.34,15.35,43.45,26.39"/>
			<path class="st10" d="M733.16,324.31c-0.08,0.1-0.15,0.21-0.23,0.31c-15.87,21.8-31.75,43.59-47.62,65.38
				c-24.68,33.87-49.44,67.89-69.11,105.09c-11.11,21.02-20.52,42.93-30.93,64.33c-29.09,59.84-65.95,115.64-109.29,165.45
				c-0.79,0.92-1.59,1.83-2.39,2.74"/>
			<path class="st9" d="M45.91,317.05c8.5,30.76,16.99,61.52,25.48,92.28c4.92,17.8,9.84,35.63,12.87,53.86
				c3.52,21.19,4.46,42.73,5.15,64.21c2.18,68.42,1.89,136.92-0.88,205.31"/>
			<path class="st9" d="M907.54,312.95c-8.5,30.71-16.99,61.43-25.48,92.15c-4.92,17.77-9.84,35.58-12.87,53.79
				c-3.52,21.15-4.46,42.66-5.15,64.11c-2.18,68.32-1.89,136.72,0.88,205.02"/>
			<path class="st11" d="M0,247.33c95.15-18.68,187.54-46.5,274.61-82.69c7.9-3.28,15.93-6.78,23.52-10.71
				c12.39-6.42,23.62-13.99,31.26-23.65"/>
			<path class="st4" d="M340.21,128.79c1.83,1.87,3.7,3.7,5.62,5.48c38.73,35.96,93.11,60.47,121.16,102.92"/>
			<path class="st4" d="M464.55,237.73c0.62,0.02,1.25,0.03,1.87,0.03c4.8,0.06,9.61-0.24,14.35-0.88c0.47-0.06,0.94-0.13,1.4-0.2
				c0.15-0.02,0.31-0.05,0.46-0.07"/>
		</g>
	</g>
</g>
<g id="Layer_3">
</g>
</svg>
